<svg width="356" height="357" xmlns="http://www.w3.org/2000/svg" xmlns:xlink="http://www.w3.org/1999/xlink" xml:space="preserve" overflow="hidden"><defs><clipPath id="clip0"><rect x="698" y="2177" width="356" height="357"/></clipPath></defs><g clip-path="url(#clip0)" transform="translate(-698 -2177)"><path d="M703 2356C703 2260.45 780.231 2183 875.5 2183 970.769 2183 1048 2260.45 1048 2356 1048 2451.55 970.769 2529 875.5 2529 780.231 2529 703 2451.55 703 2356Z" fill="#FFFFFF" fill-rule="evenodd"/><path d="M921.459 2515.26C917.967 2509.52 933.824 2493.5 956.875 2479.47 979.927 2465.45 1001.44 2458.73 1004.94 2464.47 1008.43 2470.21 992.57 2486.23 969.519 2500.25 946.467 2514.28 924.95 2521 921.459 2515.26Z" fill="#171717" fill-rule="evenodd"/><path d="M812.013 2490.08C802.838 2461.23 842.904 2422.73 901.503 2404.1 960.102 2385.47 1015.04 2393.76 1024.22 2422.62 1033.39 2451.48 993.328 2489.97 934.729 2508.6 876.13 2527.24 821.188 2518.94 812.013 2490.08Z" fill="#171717" fill-rule="evenodd"/><path d="M1039.61 2421.21 1023.43 2448.97 999.787 2398Z" fill="#171717" fill-rule="evenodd"/><path d="M781.065 2475.98 775.672 2499.11 739.561 2466.3Z" fill="#50164A" fill-rule="evenodd"/><path d="M949.523 2512.37C933.375 2531.12 879.459 2535.44 829.097 2522.01 786.771 2510.73 759.347 2490.09 762.876 2472.18Z" fill="#50164A" fill-rule="evenodd"/><path d="M737 2378.5C737 2323 802.143 2278 882.5 2278 962.858 2278 1028 2323 1028 2378.5 1028 2434 962.858 2479 882.5 2479 802.143 2479 737 2434 737 2378.5Z" fill="#171717" fill-rule="evenodd"/><path d="M830.314 2235.92 976.057 2255.32 965.065 2337.89 819.321 2318.49Z" fill="#215F9A" fill-rule="evenodd"/><rect x="893" y="2323" width="79.0001" height="32" fill="#C87EC8"/><path d="M889.373 2186.16 954.644 2217.09 946.256 2234.79 880.985 2203.86Z" fill="#4E95D9" fill-rule="evenodd"/><path d="M833.812 2275.51 797.962 2308.91 786.721 2296.85 822.571 2263.45Z" fill="#C87EC8" fill-rule="evenodd"/><path d="M878.438 2459.93 869.452 2516.62 830.451 2510.44 839.437 2453.75Z" fill="#50164A" fill-rule="evenodd"/><path d="M946.328 2419.63 856.5 2482.96 770.759 2361.34 860.586 2298.01Z" fill="#FBE3D6" fill-rule="evenodd"/><rect x="0" y="0" width="16.4895" height="40.6884" fill="#171717" transform="matrix(0.0564352 -0.998406 -0.998406 -0.0564352 884.618 2456.97)"/><path d="M0 97.9051C-1.82331e-14 43.8336 64.1193-1.24646e-14 143.215-2.49292e-14 222.31-4.98585e-14 286.429 43.8336 286.429 97.9051 286.429 151.977 222.31 195.81 143.215 195.81 64.1193 195.81-9.11656e-14 151.977 0 97.9051Z" fill="#4E95D9" fill-rule="evenodd" transform="matrix(-0.872258 -0.489047 -0.489047 0.872258 1063.6 2293.19)"/><path d="M905.644 2335.17 893.488 2365.1 819.703 2335.13 831.86 2305.2Z" fill="#C87EC8" fill-rule="evenodd"/><path d="M851.789 2308.04 819.95 2345.31 795.579 2324.49 827.419 2287.22Z" fill="#C87EC8" fill-rule="evenodd"/><path d="M0 43.2862C-9.49065e-15 19.3799 33.3752-5.51091e-15 74.5456-1.10218e-14 115.716-2.20436e-14 149.091 19.3799 149.091 43.2862 149.091 67.1924 115.716 86.5723 74.5456 86.5723 33.3752 86.5723-4.74532e-14 67.1924 0 43.2862Z" fill="#215F9A" fill-rule="evenodd" transform="matrix(-0.964385 -0.264503 -0.264503 0.964385 979.327 2232.95)"/><path d="M823.803 2300.11 808.945 2317.51 792.381 2303.35 807.239 2285.96Z" fill="#D86ECC" fill-rule="evenodd"/><path d="M817.362 2279.5 787.023 2309.28 773.945 2295.96 804.284 2266.18Z" fill="#C87EC8" fill-rule="evenodd"/><path d="M703 2355.5C703 2259.68 780.455 2182 876 2182 971.545 2182 1049 2259.68 1049 2355.5 1049 2451.32 971.545 2529 876 2529 780.455 2529 703 2451.32 703 2355.5Z" stroke="#000000" stroke-width="10.3125" stroke-miterlimit="8" fill="none" fill-rule="evenodd"/></g></svg>